<svg xmlns="http://www.w3.org/2000/svg" xml:space="preserve" width="655.359" height="655.359" style="shape-rendering:geometricPrecision;text-rendering:geometricPrecision;image-rendering:optimizeQuality;fill-rule:evenodd;clip-rule:evenodd" viewBox="0 0 6.827 6.827"><defs><style>.fil1{fill:#fffffe}</style></defs><g id="Layer_x0020_1"><rect width="6.827" height="6.827" rx=".853" ry=".853" style="fill:#52367E"/><g id="_305269576"><path id="_305269000" class="fil1" d="M2.035 1.587c.122 0 .24.022.35.06.132-.459.542-.794 1.028-.794s.897.335 1.03.795c.11-.04.227-.06.35-.06.593 0 1.074.499 1.074 1.115s-.481 1.115-1.075 1.115h-.098a1.497 1.497 0 0 0-.832-.656 1.34 1.34 0 0 0-1 .036c-.304.121-.56.34-.73.62h-.097C1.44 3.818.96 3.32.96 2.703s.481-1.116 1.075-1.116z"/><path id="_305268904" class="fil1" d="M2.03 4.488c.012-.164.052-.32.115-.463h.542a3.132 3.132 0 0 0-.048.463H2.03zm.806-.463h.504v.463h-.554c.004-.152.02-.306.05-.463zm.651 0h.487c.039.157.06.311.066.463h-.553v-.463zm.639 0h.555c.064.143.104.3.115.463h-.608a2.457 2.457 0 0 0-.062-.463zm-1.904-.148c.155-.26.394-.466.68-.58-.08.197-.142.39-.185.58h-.495zm.866-.638a1.39 1.39 0 0 1 .546-.021c.134.225.233.444.3.66h-.447v-.675H3.34v.674h-.472c.05-.208.122-.42.22-.638zm.742.025c.327.103.602.324.775.613h-.518a3.106 3.106 0 0 0-.257-.613zm.969 1.372a1.38 1.38 0 0 1-.118.512h-.56a2.444 2.444 0 0 0 .068-.512h.61zm-.83.512h-.482v-.512h.554v.023c-.006.166-.031.329-.072.49zm-.63 0h-.498a2.966 2.966 0 0 1-.056-.512h.555v.512zm-.648 0h-.546a1.38 1.38 0 0 1-.117-.512h.61a3.214 3.214 0 0 0 .053.512zm1.914.148a1.39 1.39 0 0 1-.794.62c.114-.203.205-.41.269-.62h.525zm-.99.663a1.397 1.397 0 0 1-.513-.02 3.559 3.559 0 0 1-.229-.643h.467v.675h.147v-.675h.439a3.084 3.084 0 0 1-.31.663zm-.7-.078a1.391 1.391 0 0 1-.693-.585h.5c.047.199.112.394.194.585z"/></g></g></svg>

